<?xml version="1.0" standalone="no"?>
<!DOCTYPE svg PUBLIC "-//W3C//DTD SVG 20010904//EN"
 "http://www.w3.org/TR/2001/REC-SVG-20010904/DTD/svg10.dtd">
<svg version="1.0" xmlns="http://www.w3.org/2000/svg"
 width="256.000000pt" height="85.000000pt" viewBox="0 0 256.000000 85.000000"
 preserveAspectRatio="xMidYMid meet">

<g transform="translate(0.000000,85.000000) scale(0.100000,-0.100000)"
fill="#000000" stroke="none">
<path d="M1273 735 c-56 -24 -63 -53 -63 -252 0 -149 3 -184 18 -213 31 -64
125 -89 198 -54 46 22 65 62 67 138 l2 61 -47 3 -48 3 0 -53 c0 -58 -12 -78
-45 -78 -41 0 -45 16 -45 190 0 174 4 190 45 190 31 0 45 -19 45 -62 l0 -38
51 0 52 0 -7 52 c-9 65 -19 84 -59 108 -38 24 -117 26 -164 5z"/>
<path d="M100 738 c0 -2 15 -137 34 -301 18 -163 35 -299 38 -302 5 -5 118 12
125 19 3 3 11 62 19 133 8 70 15 137 17 148 1 11 9 -47 17 -128 l13 -149 66 7
c36 4 66 8 67 8 1 3 65 552 64 560 0 5 -19 7 -42 5 l-43 -3 -20 -187 c-11
-102 -23 -189 -26 -192 -3 -3 -14 82 -24 189 l-18 195 -48 0 c-57 0 -51 19
-76 -245 -9 -104 -18 -183 -20 -175 -4 22 -43 393 -43 408 0 8 -17 12 -50 12
-27 0 -50 -1 -50 -2z"/>
<path d="M621 493 c-23 -137 -45 -263 -48 -282 l-6 -34 42 6 c24 3 45 7 47 10
3 2 8 24 12 48 8 46 22 56 89 58 30 1 31 -1 38 -49 l7 -50 49 0 c41 0 49 3 49
18 0 10 -20 130 -45 266 -25 137 -45 250 -45 252 0 2 -33 4 -73 4 l-73 0 -43
-247z m148 -94 c1 -12 -11 -19 -35 -24 -20 -3 -38 -4 -40 -2 -5 5 23 200 34
232 5 17 39 -150 41 -206z"/>
<path d="M882 703 c3 -38 3 -38 51 -41 l47 -3 0 -225 0 -224 50 0 50 0 0 224
0 225 48 3 c47 3 47 3 50 41 l3 37 -151 0 -151 0 3 -37z"/>
<path d="M1550 476 l0 -264 46 -4 c25 -2 47 -1 50 1 2 2 4 56 4 119 0 100 2
113 16 108 9 -3 31 -6 50 -6 l34 0 0 -114 0 -113 38 -7 c20 -3 43 -6 50 -6 9
0 12 62 12 275 l0 275 -50 0 -50 0 0 -115 c0 -125 3 -119 -62 -109 l-38 7 0
108 0 109 -50 0 -50 0 0 -264z"/>
<path d="M1922 463 l3 -278 75 -7 c41 -3 96 -9 123 -12 l47 -7 0 45 c0 50 -8
56 -75 56 -80 0 -75 -16 -75 246 l0 234 -50 0 -50 0 2 -277z"/>
<path d="M2146 668 c77 -226 94 -302 94 -410 l0 -105 38 -7 c65 -10 62 -15 62
95 0 93 4 113 56 282 30 100 57 190 60 200 5 14 -2 17 -43 17 l-48 0 -29 -112
c-28 -112 -45 -158 -46 -129 0 8 -14 65 -31 127 l-31 114 -54 0 -53 0 25 -72z"/>
</g>
</svg>
